<svg xmlns="http://www.w3.org/2000/svg" viewBox="0 0 100 100"><path fill="#fff" d="M20.3 55.1A.9.9 0 1 0 20.3 56.9.9.9 0 1 0 20.3 55.1zM79.4 30.400000000000002A.7.7 0 1 0 79.4 31.8.7.7 0 1 0 79.4 30.400000000000002z"/><path fill="#f1bc19" d="M76.7 11.2A.9.9 0 1 0 76.7 13 .9.9 0 1 0 76.7 11.2zM20.8 62.800000000000004A.9.9 0 1 0 20.8 64.60000000000001.9.9 0 1 0 20.8 62.800000000000004z"/><path fill="#e4e4f9" d="M49.6 11.799999999999997A37.5 37.5 0 1 0 49.6 86.8A37.5 37.5 0 1 0 49.6 11.799999999999997Z"/><path fill="#f1bc19" d="M82.2 10.2A4 4 0 1 0 82.2 18.2A4 4 0 1 0 82.2 10.2Z"/><path fill="#ee3e54" d="M86.2 21.400000000000002A1.9 1.9 0 1 0 86.2 25.2A1.9 1.9 0 1 0 86.2 21.400000000000002Z"/><path fill="#fbcd59" d="M77.2 73.8A1.9 1.9 0 1 0 77.2 77.60000000000001 1.9 1.9 0 1 0 77.2 73.8zM14 58.8A4 4 0 1 0 14 66.8 4 4 0 1 0 14 58.8z"/><path fill="#ee3e54" d="M24.3 85A1.9 1.9 0 1 0 24.3 88.80000000000001A1.9 1.9 0 1 0 24.3 85Z"/><path fill="#fff" d="M75.8 27.8A1.8 1.8 0 1 0 75.8 31.400000000000002 1.8 1.8 0 1 0 75.8 27.8zM17.8 48.2A2.5 2.5 0 1 0 17.8 53.2 2.5 2.5 0 1 0 17.8 48.2z"/><path fill="#ce9065" d="M68.1,70.5c-0.4-2.2-1.3-3.4-3.3-4l-0.3-0.1l-0.6-0.2c-1.3-0.5-8.7-3.3-8.7-3.3 c-0.6-0.1-1-0.5-1.2-1.1c-0.2-0.9-0.3-1.9-0.2-2.9c-1.6,0.6-3.3,1-5,1.4c-1.9,0.2-6-2.3-6-2.3s-0.1,3-0.2,3.7 c-0.2,0.6-0.7,1-1.3,1.1L34,65.5c-0.8,0.2-1.5,0.5-2.2,0.9c-1.5,1-2.6,2.4-3.2,4.2c0,0-0.5,3.3-0.5,3.4c0,0.5-0.1,1-0.1,1.5 c7.8,5.3,14,6.7,24.7,6.3c4.9-0.2,12.1-2.6,15.9-4.5C68.5,73,68.1,70.5,68.1,70.5z"/><path fill="#8889b9" d="M64.8,66.5l-0.3-0.1l-0.6-0.2c-0.8-0.3-3.9-1.5-6.2-2.3h-0.1C55,65.1,51.5,67,48.2,67 s-6.6-1.8-9.4-3.2l-0.3,0.1L34,65.5c-0.8,0.2-1.5,0.5-2.2,0.9c-1.5,1-2.6,2.4-3.2,4.2c0,0-0.5,3.3-0.5,3.4c0,0.5-0.1,5.4-0.1,6 c7.8,5.3,14,6.7,24.7,6.3c4.9-0.2,12.1-2.6,15.9-4.5c-0.2-4.2-0.6-11.2-0.6-11.2C67.7,68.4,66.8,67.2,64.8,66.5z"/><path fill="#7174af" d="M35 84.2c-.2 0-.4-.2-.4-.3V80c0-.2.2-.3.4-.3s.4.2.4.3v3.9C35.4 84.1 35.2 84.2 35 84.2zM61.2 84.9c-.2 0-.3-.2-.3-.3V80c0-.2.2-.3.3-.3s.3.2.3.3v4.6C61.6 84.8 61.4 84.9 61.2 84.9z"/><path fill="#db9e71" d="M60.4,44h-0.4c-1,0-1.2,0.3-1.2-0.3c0.1-1.1-0.1-5.4-0.1-5.6c0-4.5-4.7-8.1-10.5-8.3h-0.2 c-5.8,0.2-10.5,3.8-10.5,8.3c0,0.2-0.2,4.5-0.1,5.6c0,0.6-0.2,0.2-1.2,0.3H36c-1,0-1.8,0.7-2.1,1.6c0.1,0.1,0.6,3.7,1.4,5.2 c0.4,0.8,1.1,0.9,1.8,1.4c0.3,0.2,0.5,0.6,0.6,1c0.5,1.6,1.4,3,2.7,4.1c0.6,0.6,4.5,4.7,7.9,4.5s7.3-4,7.9-4.5 c1.3-1.1,2.2-2.5,2.7-4.1c0.1-0.4,0.3-0.8,0.6-1c0.7-0.5,1.4-0.6,1.8-1.4c0.8-1.4,1.3-5.1,1.4-5.2C62.2,44.7,61.4,44,60.4,44z"/><path fill="#512c2b" d="M48.3 52.1c.7 0 1.3-.3 1.8-.8 0 0 0-.1 0-.2 0 0 0 0 0 0l0 0c0 0-.1 0-.2 0 0 0 0 0 0 0-.9.8-2.3.8-3.2 0 0 0-.1 0-.1 0 0 0-.1 0-.1 0 0 0 0 .1 0 .2 0 0 0 0 0 0C47 51.8 47.6 52.1 48.3 52.1zM46.1 43.8l.4-.8c-1.9-.4-3.8-.4-5.7.2l.5.8C42.9 43.5 44.5 43.5 46.1 43.8zM55.3 43.8l.4-.8c-1.9-.4-3.8-.4-5.7.2l.5.8C52.1 43.5 53.7 43.5 55.3 43.8zM43.5 44c-.5 0-.9.3-1 .7.1 0 .1 0 .2 0 .4 0 .7.3.7.7 0 .4-.3.7-.7.7-.1 0-.2 0-.3-.1.1.6.6 1.1 1.2 1.1.9-.2 1.4-1.1 1.2-2C44.5 44.6 44 44.2 43.5 44L43.5 44zM53 44c-.4 0-.7.2-.9.5.1 0 .2 0 .2 0 .4 0 .7.3.7.7 0 .4-.3.7-.7.7-.2 0-.4-.1-.5-.3.2.7.9 1.1 1.6.9.7-.2 1.1-.9.9-1.6C54.1 44.4 53.6 44 53 44z"/><path fill="#472b29" d="M49.3,87c-8.9,0-14.6-1.8-21.5-6.4c-0.1-0.1-0.2-0.3-0.2-0.5c0-0.1,0-0.4,0-0.9 c0-2.2,0.1-6.8,0.6-8.6c0.4-1.9,1.6-3.6,3.4-4.5c0.7-0.4,1.5-0.7,2.3-0.9l7.1-2.5c0.5-0.1,0.8-0.4,1-0.8c0-0.3,0.1-1.2,0.1-2 c-0.7-0.5-1.4-1-2.1-1.6c-1.3-1.2-2.3-2.7-2.8-4.4c-0.1-0.3-0.2-0.6-0.4-0.8c-0.2-0.1-0.4-0.3-0.6-0.4c-0.5-0.3-1-0.6-1.4-1.2 c-0.8-1.7-1.3-3.6-1.4-5.4c0-0.1,0-0.1,0-0.2c0.3-1.1,1.4-1.9,2.6-1.9h0.4c0.3,0,0.5,0,0.7,0c0-1.2,0-3.8,0.1-4.9 c0-0.3,0-0.5,0-0.5c0-4.8,4.8-8.7,10.9-8.9l0.3,0c6.2,0.2,11,4.1,11,8.9c0,0,0,0.2,0,0.5c0,1.2,0.1,3.9,0.1,5c0.2,0,0.4,0,0.7,0 h0.4c1.2,0,2.2,0.8,2.6,1.9c0,0.1,0,0.1,0,0.2c-0.2,1.9-0.6,3.7-1.4,5.4c-0.4,0.7-0.9,1-1.4,1.3c-0.2,0.1-0.4,0.2-0.6,0.4 c-0.2,0.2-0.3,0.4-0.4,0.7c-0.5,1.8-1.5,3.3-2.8,4.5c-0.7,0.6-1.5,1.2-2.2,1.8c0,0.6,0.1,1.3,0.2,1.9c0.1,0.3,0.5,0.6,0.9,0.7 c0.3,0.1,7.5,2.8,8.7,3.3l0.9,0.3c2.1,0.6,3.2,1.9,3.7,4.4c0,0,0,0,0,0.1c0,0,0.4,6.9,0.5,11.2c0,0.2-0.1,0.4-0.3,0.5 c-4,2-11.4,4.4-16.1,4.6C51.5,86.9,50.4,87,49.3,87z M28.6,79.9c7.4,5,13.5,6.5,24.2,6c4.5-0.2,11.4-2.4,15.4-4.3 c-0.2-4.1-0.5-10.3-0.5-10.8c-0.4-2.1-1.2-3.1-3-3.6l-1-0.4c-1.2-0.5-8.6-3.2-8.7-3.3c-0.7-0.2-1.2-0.7-1.5-1.3 c-0.3-0.9-0.3-1.7-0.3-2.5c0-0.2,0.1-0.3,0.2-0.4c0.8-0.6,1.6-1.2,2.3-1.8c1.2-1,2.1-2.4,2.5-3.9c0.1-0.4,0.3-0.9,0.7-1.2 c0.3-0.2,0.5-0.3,0.7-0.5c0.4-0.2,0.7-0.4,1-0.8c0.7-1.5,1.2-3.2,1.3-4.9c-0.2-0.7-0.9-1.1-1.6-1.1h-0.4c-0.3,0-0.5,0-0.7,0.1 c-0.3,0-0.6,0.1-0.8-0.1c-0.2-0.2-0.2-0.6-0.2-0.7c0.1-0.9,0-3.9-0.1-5.1c0-0.3,0-0.5,0-0.5c0-4.2-4.4-7.7-10-7.9l-0.2,0 c-5.6,0.2-10,3.7-10,7.9c0,0,0,0.2,0,0.5c0,1.2-0.1,4.2-0.1,5.1c0,0.2,0,0.5-0.2,0.7C37.6,45,37.3,45,37.1,45c-0.2,0-0.4-0.1-0.7,0 l-0.4,0c-0.7,0-1.4,0.5-1.6,1.1c0.2,1.7,0.6,3.4,1.3,5c0.2,0.4,0.5,0.6,1,0.8c0.2,0.1,0.5,0.3,0.7,0.4c0.4,0.3,0.7,0.8,0.8,1.3 c0.4,1.4,1.3,2.8,2.5,3.8c0.7,0.6,1.5,1.2,2.2,1.7c0.1,0.1,0.2,0.3,0.2,0.4c-0.1,1.1-0.1,2.1-0.2,2.5c-0.3,0.8-0.9,1.4-1.7,1.5 l-7.1,2.5c-0.8,0.2-1.5,0.5-2.1,0.9c-1.5,0.8-2.6,2.2-2.9,3.8c-0.5,1.7-0.5,6.4-0.6,8.4C28.6,79.5,28.6,79.7,28.6,79.9z"/><path fill="#895d3d" d="M60.5 48.9l-.6-.1.2-1.8-1 .4-.2-.5 1.5-.7c.1 0 .2 0 .3 0 .1.1.1.2.1.3L60.5 48.9zM36.3 48.5L36 46.2c0-.1 0-.2.1-.3.1-.1.2-.1.3 0l1.5.6-.2.6-1-.4.2 1.8L36.3 48.5z"/><path fill="#472b29" d="M37.6 53C37.6 53 37.6 53 37.6 53c-.1 0-.2-.1-.2-.2l.2-8.7c0-.1.1-.2.2-.2.1 0 .2.1.2.2l-.2 8.7C37.8 52.9 37.7 53 37.6 53zM59 53c-.1 0-.2-.1-.2-.2l-.2-8.7c0-.1.1-.2.2-.2 0 0 0 0 0 0 .1 0 .2.1.2.2l.2 8.7C59.2 52.9 59.1 53 59 53 59 53 59 53 59 53z"/><path fill="#ba552d" d="M58.4,32.2c1.3,0.3,2.1,1.4,2.1,2.7c-0.1,2.2-1.6,11.7-1.6,11.7l-3.1-9.8 C55.8,36.8,58.4,32.2,58.4,32.2z"/><path fill="#c06134" d="M46.7,27l-1.2-1.6c0,0,13.1-1.5,13,5.8c0.2,5.4-3.3,10.1-8.5,11.6l0.6-2.6l-5.1,2.7l0.7-1.5L42,42.9 l1.5-3.5l-3.8,1.4c-0.9,2.2-1.5,4.5-2,6.8c0,0-3-10.1-1.1-10.9L36,36.3l0.9-1.8l-1.4-0.6l1.2-1.7l-0.5-0.7l2.5-1.5l-1.3-0.7 C37.4,29.3,41.7,25.7,46.7,27z"/><path fill="#6d1b18" d="M44.6,54.6c0,0.2-0.1,0.3-0.1,0.5c0,1.4,1.5,2.5,3.5,2.5s3.5-1.1,3.5-2.5c0-0.2,0-0.3-0.1-0.5H44.6z"/><path fill="#ee3e54" d="M49.8,57.3c-1.1-0.8-2.6-0.8-3.6,0C47.4,57.8,48.7,57.8,49.8,57.3z"/><path fill="#fdfcef" d="M45.6,54.6L45.6,54.6V55c0,0.4,0.5,0.7,1.1,0.7h2.6c0.6,0,1.1-0.3,1.1-0.7v-0.4l0,0H45.6z"/><path fill="#472b29" d="M48 57.8c-2 0-3.7-1.2-3.7-2.7 0-.2 0-.4.1-.5 0-.1.1-.2.2-.2h6.8c.1 0 .2.1.2.2 0 .2.1.4.1.5C51.7 56.6 50 57.8 48 57.8zM44.8 54.8c0 .1 0 .2 0 .3 0 1.3 1.5 2.3 3.3 2.3s3.2-1 3.2-2.3c0-.1 0-.2 0-.3H44.8zM48.2 62.3c-2 0-5.5-2.6-5.6-2.7-.1-.1-.1-.2 0-.4.1-.1.2-.1.4 0 0 0 3.7 2.8 5.5 2.6 1.8-.2 4.8-2.4 4.8-2.4.1-.1.3-.1.4.1.1.1.1.3-.1.4-.1.1-3.1 2.3-5 2.5C48.4 62.3 48.3 62.3 48.2 62.3z"/></svg>